<?xml version="1.0" encoding="UTF-8" standalone="no"?>
<svg
   xmlns:dc="http://purl.org/dc/elements/1.1/"
   xmlns:cc="http://creativecommons.org/ns#"
   xmlns:rdf="http://www.w3.org/1999/02/22-rdf-syntax-ns#"
   xmlns:svg="http://www.w3.org/2000/svg"
   xmlns="http://www.w3.org/2000/svg"
   xmlns:sodipodi="http://sodipodi.sourceforge.net/DTD/sodipodi-0.dtd"
   xmlns:inkscape="http://www.inkscape.org/namespaces/inkscape"
   id="animierter-forschungskreislauf"
   viewBox="0 0 298.36997 298.37051"
   version="1.1"
   sodipodi:docname="spinner.svg"
   width="298.36996"
   height="298.37051"
   style="shape-rendering:geometricPrecision;text-rendering:geometricPrecision"
   inkscape:version="0.92.4 (5da689c313, 2019-01-14)">
  <metadata
     id="metadata16">
    <rdf:RDF>
      <cc:Work
         rdf:about="">
        <dc:format>image/svg+xml</dc:format>
        <dc:type
           rdf:resource="http://purl.org/dc/dcmitype/StillImage" />
        <dc:title></dc:title>
      </cc:Work>
    </rdf:RDF>
  </metadata>
  <defs
     id="defs14" />
  <sodipodi:namedview
     pagecolor="#ffffff"
     bordercolor="#666666"
     borderopacity="1"
     objecttolerance="10"
     gridtolerance="10"
     guidetolerance="10"
     inkscape:pageopacity="0"
     inkscape:pageshadow="2"
     inkscape:window-width="1916"
     inkscape:window-height="2126"
     id="namedview12"
     showgrid="false"
     fit-margin-top="0"
     fit-margin-left="0"
     fit-margin-right="0"
     fit-margin-bottom="0"
     inkscape:zoom="0.53942033"
     inkscape:cx="194.37849"
     inkscape:cy="134.30426"
     inkscape:window-x="962"
     inkscape:window-y="32"
     inkscape:window-maximized="0"
     inkscape:current-layer="animierter-forschungskreislauf" />
  <g
     id="animierter-forschungskreislauf-g10"
     transform="matrix(1.3333333,0,0,-1.3333333,-136.98919,382.8196)">
    <g
       id="animierter-forschungskreislauf-g12"
       transform="matrix(0.1,0,0,0.1,0.00330865,0.06121402)">
      <path
         id="animierter-forschungskreislauf-path14"
         d="m 2081.03,2868.54 c -325.05,-18.93 -621.66,-176.03 -820.19,-433.11 l 171.85,27.73 29.68,-181.7 c 153.12,197.73 380.77,318.58 630.55,333.95 l 120.61,132.72 -132.5,120.41"
         inkscape:connector-curvature="0"
         style="fill:#05a0cf;stroke:none;stroke-width:1" />
      <path
         id="animierter-forschungskreislauf-path16"
         d="m 1437.13,2247.33 -6.32,39.19 v 0 l -22.96,142.25 -172.67,-27.87 c -147.2,-206.24 -218.6,-449.16 -206.47,-702.69 3.45,-72.09 13.87,-143.69 30.89,-213.38 l 87.37,155.04 157.63,-88.83 c -12.52,52.55 -20.17,105.98 -22.72,159.28 -9.24,193.44 44.4,378.83 155.25,537.01"
         inkscape:connector-curvature="0"
         style="fill:#05a0cf;stroke:none;stroke-width:1" />
      <path
         id="animierter-forschungskreislauf-path18"
         d="m 1777.69,968.59 c -222.79,105.34 -393.96,305.28 -462.48,542.04 l -156.84,88.38 -87.81,-155.83 c 88.69,-310.06 313.83,-571.758 606.84,-707.52 l -66.88,165.289 167.17,67.641"
         inkscape:connector-curvature="0"
         style="fill:#7b1f86;stroke:none;stroke-width:1" />
      <path
         id="animierter-forschungskreislauf-path20"
         d="m 2481.78,801.148 52.52,176.832 c -108.05,-54.332 -224.51,-84.89 -346.67,-90.73 -128.66,-6.18 -253.72,15.52 -371.8,64.41 l -166.25,-67.269 55.92,-138.2 v 0 l 11.32,-27.961 c 153.25,-63.832 315.7,-92.128 482.92,-84.16 158.21,7.571 308.97,47.149 448.77,117.559 l -166.73,49.519"
         inkscape:connector-curvature="0"
         style="fill:#7b1f86;stroke:none;stroke-width:1" />
      <path
         id="animierter-forschungskreislauf-path22"
         d="m 3095.84,1421.64 -103.55,148.47 c -1.61,-7.44 -3.31,-14.85 -5.1,-22.24 -0.02,-0.08 -0.04,-0.16 -0.06,-0.24 -1.78,-7.3 -3.66,-14.59 -5.64,-21.83 -0.03,-0.17 -0.08,-0.33 -0.12,-0.48 -1.96,-7.18 -4.01,-14.32 -6.16,-21.43 -0.06,-0.23 -0.13,-0.48 -0.21,-0.71 -2.12,-7.03 -4.34,-14.03 -6.64,-21 -0.1,-0.32 -0.21,-0.63 -0.31,-0.95 -2.28,-6.87 -4.64,-13.7 -7.09,-20.51 -0.16,-0.43 -0.32,-0.85 -0.46,-1.28 -2.43,-6.7 -4.93,-13.36 -7.53,-20 -0.2,-0.52 -0.4,-1.04 -0.6,-1.54 -2.57,-6.54 -5.2,-13.03 -7.92,-19.49 -0.27,-0.63 -0.53,-1.26 -0.8,-1.88 -2.68,-6.35 -5.45,-12.65 -8.28,-18.93 -0.33,-0.73 -0.66,-1.45 -0.99,-2.18 -2.81,-6.16 -5.68,-12.28 -8.62,-18.37 -0.41,-0.84 -0.82,-1.67 -1.23,-2.51 -2.91,-5.97 -5.88,-11.91 -8.92,-17.81 -0.49,-0.93 -0.98,-1.86 -1.46,-2.8 -3.02,-5.78 -6.08,-11.53 -9.23,-17.24 -0.56,-1.04 -1.14,-2.08 -1.72,-3.1 -3.09,-5.58 -6.24,-11.13 -9.45,-16.64 -0.68,-1.16 -1.37,-2.32 -2.05,-3.48 -3.16,-5.36 -6.38,-10.7 -9.66,-15.99 -0.78,-1.26 -1.57,-2.51 -2.36,-3.77 -3.23,-5.17 -6.51,-10.31 -9.86,-15.41 -0.88,-1.37 -1.8,-2.73 -2.7,-4.1 -3.29,-4.95 -6.61,-9.87 -9.99,-14.75 -1.03,-1.48 -2.06,-2.94 -3.1,-4.41 -3.33,-4.74 -6.69,-9.46 -10.1,-14.14 -1.16,-1.57 -2.33,-3.13 -3.49,-4.69 -3.37,-4.53 -6.75,-9.05 -10.21,-13.52 -1.27,-1.67 -2.59,-3.31 -3.89,-4.97 -3.39,-4.33 -6.8,-8.63 -10.28,-12.9 -1.42,-1.75 -2.88,-3.49 -4.32,-5.22 -3.4,-4.13 -6.82,-8.23 -10.29,-12.28 -1.6,-1.85 -3.22,-3.67 -4.82,-5.51 -3.41,-3.9 -6.83,-7.8 -10.3,-11.64 -1.73,-1.91 -3.5,-3.79 -5.25,-5.69 -3.41,-3.71 -6.84,-7.43 -10.33,-11.09 -1.87,-1.96 -3.78,-3.89 -5.67,-5.85 -3.43,-3.52 -6.86,-7.05 -10.34,-10.51 -2.04,-2.04 -4.13,-4.04 -6.2,-6.06 -3.4,-3.32 -6.79,-6.64 -10.25,-9.9 -2.24,-2.12 -4.51,-4.18 -6.78,-6.27 -3.36,-3.1 -6.71,-6.22 -10.11,-9.28 -2.43,-2.17 -4.9,-4.29 -7.35,-6.43 -3.31,-2.91 -6.61,-5.83 -9.98,-8.68 -2.6,-2.22 -5.25,-4.37 -7.89,-6.56 -3.27,-2.71 -6.53,-5.46 -9.86,-8.12 -2.81,-2.27 -5.68,-4.47 -8.52,-6.7 -3.2,-2.51 -6.38,-5.05 -9.63,-7.52 -3.06,-2.33 -6.19,-4.6 -9.28,-6.9 -3.09,-2.28 -6.16,-4.59 -9.28,-6.84 -3.29,-2.37 -6.64,-4.67 -9.96,-6.99 -3.01,-2.1 -5.99,-4.23 -9.02,-6.29 -3.58,-2.43 -7.21,-4.78 -10.83,-7.16 -2.84,-1.87 -5.65,-3.78 -8.52,-5.62 -4.32,-2.76 -8.69,-5.43 -13.07,-8.12 -2.21,-1.37 -4.4,-2.77 -6.64,-4.12 -6.65,-4.01 -13.35,-7.92 -20.11,-11.751 l -52.38,-176.36 167.41,-49.718 c 9.1,5.019 18.09,10.14 27,15.39 3.1,1.821 6.14,3.739 9.22,5.578 5.76,3.461 11.54,6.903 17.21,10.45 3.89,2.429 7.7,4.953 11.54,7.421 4.79,3.079 9.61,6.122 14.34,9.25 4.22,2.801 8.35,5.7 12.52,8.54 4.28,2.921 8.58,5.8 12.81,8.781 4.39,3.07 8.68,6.25 13.01,9.379 3.92,2.84 7.88,5.648 11.76,8.539 4.51,3.359 8.94,6.812 13.4,10.23 3.59,2.762 7.22,5.481 10.77,8.27 4.62,3.64 9.15,7.371 13.71,11.082 3.29,2.668 6.63,5.32 9.89,8.027 4.67,3.891 9.25,7.871 13.86,11.82 3.05,2.622 6.13,5.211 9.15,7.864 4.77,4.187 9.45,8.468 14.14,12.738 2.73,2.488 5.51,4.949 8.21,7.461 4.86,4.5 9.61,9.078 14.38,13.66 2.47,2.367 4.97,4.719 7.41,7.109 4.88,4.77 9.67,9.641 14.45,14.489 2.24,2.281 4.51,4.519 6.72,6.812 4.89,5.059 9.7,10.188 14.49,15.348 2.02,2.16 4.06,4.293 6.05,6.461 4.9,5.35 9.72,10.77 14.51,16.2 1.8,2.05 3.62,4.07 5.4,6.12 4.89,5.63 9.7,11.35 14.47,17.07 1.61,1.91 3.22,3.82 4.81,5.74 4.86,5.92 9.64,11.91 14.38,17.93 1.41,1.79 2.85,3.56 4.24,5.36 4.85,6.22 9.59,12.5 14.29,18.82 1.23,1.64 2.47,3.27 3.69,4.92 4.79,6.52 9.49,13.1 14.14,19.72 1.06,1.49 2.12,2.99 3.17,4.49 4.72,6.8 9.36,13.66 13.93,20.56 0.91,1.36 1.83,2.72 2.73,4.1 4.64,7.08 9.19,14.23 13.69,21.41 0.76,1.23 1.53,2.45 2.29,3.67 4.55,7.36 9.01,14.78 13.39,22.25 0.63,1.09 1.28,2.17 1.91,3.25 4.45,7.64 8.79,15.35 13.06,23.1 0.52,0.94 1.05,1.88 1.55,2.81 4.32,7.89 8.54,15.84 12.66,23.85 0.43,0.83 0.87,1.67 1.3,2.5 4.17,8.15 8.23,16.35 12.21,24.6 0.33,0.7 0.67,1.41 1.01,2.11 4.02,8.4 7.94,16.86 11.76,25.37 0.25,0.57 0.51,1.13 0.76,1.69 3.86,8.66 7.61,17.37 11.26,26.14 0.18,0.43 0.36,0.87 0.54,1.3 3.68,8.88 7.24,17.81 10.7,26.81 0.14,0.35 0.27,0.69 0.4,1.04 3.49,9.09 6.86,18.24 10.1,27.43 0.09,0.25 0.17,0.49 0.26,0.74 3.27,9.27 6.43,18.6 9.46,27.98 0.06,0.2 0.12,0.4 0.19,0.59 3.05,9.44 5.97,18.95 8.78,28.5 0.03,0.11 0.06,0.23 0.1,0.34 2.82,9.64 5.52,19.32 8.08,29.05 0.01,0.03 0.02,0.07 0.03,0.1 2.59,9.78 5.04,19.61 7.37,29.48 0.01,0.03 0.01,0.06 0.02,0.09 2.33,9.89 4.53,19.83 6.59,29.81 v 0 l -145.92,-101.74"
         inkscape:connector-curvature="0"
         style="fill:#7b1f86;stroke:none;stroke-width:1" />
      <path
         id="animierter-forschungskreislauf-path24"
         d="m 3263.88,1805.1 c -0.74,15.36 -1.79,30.66 -3.13,45.88 -0.5,5.65 -1.22,11.25 -1.8,16.88 -0.97,9.49 -1.9,19 -3.1,28.43 -0.91,7.09 -2.07,14.12 -3.11,21.18 -1.16,7.84 -2.23,15.72 -3.55,23.52 -1.34,7.9 -2.91,15.74 -4.41,23.59 -1.3,6.84 -2.53,13.7 -3.96,20.5 -1.8,8.49 -3.81,16.91 -5.79,25.35 -1.42,6.02 -2.76,12.07 -4.28,18.06 -2.27,8.99 -4.76,17.89 -7.25,26.8 -1.49,5.31 -2.92,10.65 -4.49,15.94 -2.78,9.4 -5.77,18.73 -8.8,28.04 -1.52,4.66 -2.98,9.33 -4.57,13.97 -3.32,9.76 -6.83,19.45 -10.43,29.11 -1.51,4.06 -2.98,8.13 -4.55,12.17 -3.89,10.1 -7.97,20.12 -12.16,30.1 -1.46,3.47 -2.89,6.93 -4.39,10.38 -4.49,10.41 -9.18,20.74 -13.99,31 -1.37,2.91 -2.73,5.81 -4.11,8.71 -5.13,10.67 -10.44,21.27 -15.92,31.78 -1.23,2.37 -2.46,4.73 -3.71,7.09 -5.78,10.91 -11.75,21.74 -17.91,32.47 -1.07,1.86 -2.14,3.72 -3.23,5.57 -6.46,11.11 -13.11,22.14 -19.98,33.06 -0.87,1.37 -1.74,2.74 -2.61,4.12 -7.18,11.29 -14.54,22.48 -22.15,33.55 -0.62,0.9 -1.25,1.8 -1.88,2.7 -7.92,11.45 -16.03,22.79 -24.4,33.99 -0.34,0.45 -0.69,0.9 -1.03,1.35 -8.69,11.59 -17.59,23.04 -26.77,34.35 l -11.02,-171.19 -186.39,12 0.01,-0.01 c 7.22,-8.88 14.23,-17.89 21.06,-27 0.12,-0.16 0.23,-0.31 0.35,-0.46 6.7,-8.95 13.2,-18.01 19.52,-27.16 0.26,-0.37 0.51,-0.73 0.75,-1.1 6.18,-8.96 12.16,-18.02 17.96,-27.18 0.38,-0.6 0.76,-1.2 1.14,-1.8 5.63,-8.93 11.09,-17.94 16.37,-27.04 0.53,-0.92 1.06,-1.84 1.58,-2.76 5.08,-8.83 10,-17.73 14.76,-26.71 0.66,-1.27 1.32,-2.55 1.98,-3.82 4.54,-8.69 8.95,-17.44 13.18,-26.28 0.79,-1.64 1.54,-3.29 2.32,-4.93 4.01,-8.53 7.91,-17.1 11.64,-25.75 0.89,-2.06 1.74,-4.15 2.61,-6.22 3.49,-8.29 6.9,-16.62 10.14,-25.02 0.97,-2.55 1.89,-5.12 2.85,-7.67 2.98,-8.02 5.91,-16.06 8.67,-24.17 1.03,-3.05 1.98,-6.12 2.99,-9.19 2.52,-7.7 5,-15.42 7.29,-23.21 1.07,-3.59 2.02,-7.21 3.04,-10.82 2.06,-7.35 4.12,-14.7 5.99,-22.11 1.06,-4.2 1.99,-8.44 2.98,-12.65 1.63,-6.92 3.29,-13.83 4.76,-20.81 1.03,-4.9 1.9,-9.85 2.85,-14.78 1.22,-6.39 2.51,-12.75 3.59,-19.18 0.97,-5.75 1.75,-11.56 2.61,-17.35 0.85,-5.7 1.78,-11.38 2.51,-17.11 0.91,-7.11 1.6,-14.27 2.34,-21.43 0.46,-4.49 1.04,-8.96 1.43,-13.47 1.04,-11.73 1.85,-23.52 2.41,-35.37 2.88,-60.27 -0.66,-121.33 -10.54,-181.69 l 103.13,-147.91 146.43,102.15 c 13.23,78.91 18,159.48 14.17,239.56"
         inkscape:connector-curvature="0"
         style="fill:#7b1f86;stroke:none;stroke-width:1" />
      <path
         id="animierter-forschungskreislauf-path26"
         d="m 2792.17,2327.34 185.22,-11.93 11.12,172.75 -2.91,3.3 c -217.82,246.79 -527.77,383.81 -854.74,378.95 l 131.97,-119.93 -121.29,-133.46 c 1.79,0.01 3.61,0.02 5.39,0.02 246.68,0 479.72,-104.19 645.24,-289.7"
         inkscape:connector-curvature="0"
         style="fill:#8eb725;stroke:none;stroke-width:1" />
    </g>
  </g>
</svg>
